<svg xmlns="http://www.w3.org/2000/svg" xmlns:xlink="http://www.w3.org/1999/xlink" width="24" height="28" viewBox="0 0 24 28">
  <defs>
    <clipPath id="clip-path">
      <rect id="Rectangle_694" data-name="Rectangle 694" width="12" height="24" transform="translate(3295 250)" fill="#fff"/>
    </clipPath>
    <clipPath id="clip-path-2">
      <rect id="Rectangle_693" data-name="Rectangle 693" width="12" height="24" transform="translate(3335 250)" fill="#fff"/>
    </clipPath>
  </defs>
  <g id="Biometric_ID" transform="translate(-19 -18)">
    <g id="Mask_Group_12" data-name="Mask Group 12" transform="translate(-3276 -230)" clip-path="url(#clip-path)">
      <g id="Functional_UI_ic_Face_recognition" data-name="Functional_UI / ic_Face_recognition" transform="translate(3295 250)">
        <rect id="Box" width="24" height="24" fill="#fff" opacity="0"/>
        <path id="Shape" d="M9.368,11a1.6,1.6,0,1,0,1.6,1.6A1.6,1.6,0,0,0,9.368,11Zm11.2,0a1.6,1.6,0,1,0,1.6,1.6A1.6,1.6,0,0,0,20.568,11ZM19,19.4a1.2,1.2,0,0,0-1.2-1.2H12.2A1.2,1.2,0,0,0,11,19.4h0v.4c0,.884,1.791,1.6,4,1.6s4-.716,4-1.6v-.4Zm6.4,4.4a1.6,1.6,0,0,1-1.6,1.6H22.2a.8.8,0,0,0-.8.8h0a.8.8,0,0,0,.8.8h1.613A3.2,3.2,0,0,0,27,23.813V22.2a.8.8,0,0,0-.8-.8h0a.8.8,0,0,0-.8.8ZM23.8,4.6a1.6,1.6,0,0,1,1.6,1.6V7.8a.8.8,0,0,0,.8.8h0a.8.8,0,0,0,.8-.8V6.187A3.2,3.2,0,0,0,23.813,3H22.2a.8.8,0,0,0-.8.8h0a.8.8,0,0,0,.8.8ZM6.2,25.4a1.6,1.6,0,0,1-1.6-1.6V22.2a.8.8,0,0,0-.8-.8h0a.8.8,0,0,0-.8.8v1.613A3.2,3.2,0,0,0,6.187,27H7.8a.8.8,0,0,0,.8-.8h0a.8.8,0,0,0-.8-.8ZM4.6,6.2A1.6,1.6,0,0,1,6.2,4.6H7.8a.8.8,0,0,0,.8-.8h0A.8.8,0,0,0,7.8,3H6.187A3.2,3.2,0,0,0,3,6.187V7.8a.8.8,0,0,0,.8.8h0a.8.8,0,0,0,.8-.8Z" transform="translate(-3 -3)" fill-rule="evenodd"/>
      </g>
    </g>
    <g id="Mask_Group_11" data-name="Mask Group 11" transform="translate(-3304 -230)" clip-path="url(#clip-path-2)">
      <g id="Functional_UI_ic_Fingerprint_recognition" data-name="Functional_UI / ic_Fingerprint_recognition" transform="translate(3323 250)">
        <rect id="Box-2" data-name="Box" width="24" height="24" fill="#fff" opacity="0"/>
        <path id="Shape-2" data-name="Shape" d="M23.813,27H22.2a.8.8,0,1,1,0-1.6h1.6a1.6,1.6,0,0,0,1.6-1.6V22.2a.8.8,0,1,1,1.6,0v1.613A3.2,3.2,0,0,1,23.813,27ZM26.2,8.6a.8.8,0,0,1-.8-.8V6.2a1.6,1.6,0,0,0-1.6-1.6H22.2a.8.8,0,1,1,0-1.6h1.613A3.2,3.2,0,0,1,27,6.187V7.8A.8.8,0,0,1,26.2,8.6ZM9.4,17.567v-.734a8.961,8.961,0,0,1,11.2,0v.734a8.4,8.4,0,0,0-11.2,0Zm0-1.439v-.683a10.085,10.085,0,0,1,11.2,0v.683A9.523,9.523,0,0,0,9.4,16.129Zm0-1.349v-.7a11.213,11.213,0,0,1,11.2,0v.7a10.649,10.649,0,0,0-11.2,0Zm0-1.295v-.633a12.344,12.344,0,0,1,11.2,0v.633A11.778,11.778,0,0,0,9.4,13.484Zm.015-1.266A5.556,5.556,0,0,1,9.5,11.56a13.476,13.476,0,0,1,10.993,0,5.556,5.556,0,0,1,.088.659A12.91,12.91,0,0,0,9.415,12.219Zm.269-1.346a5.568,5.568,0,0,1,.295-.716,14.624,14.624,0,0,1,10.043,0,5.568,5.568,0,0,1,.295.716,14.048,14.048,0,0,0-10.632,0Zm.738-1.459a5.665,5.665,0,0,1,.654-.771,15.8,15.8,0,0,1,7.849,0,5.665,5.665,0,0,1,.654.771,15.2,15.2,0,0,0-9.157,0Zm1.671-1.566A5.554,5.554,0,0,1,15,7.028h0a5.554,5.554,0,0,1,2.908.82A16.4,16.4,0,0,0,12.092,7.848ZM7.8,27H6.187A3.2,3.2,0,0,1,3,23.813V22.2a.8.8,0,1,1,1.6,0v1.6a1.6,1.6,0,0,0,1.6,1.6H7.8a.8.8,0,1,1,0,1.6Zm0-22.4H6.2A1.6,1.6,0,0,0,4.6,6.2V7.8A.8.8,0,1,1,3,7.8V6.187A3.2,3.2,0,0,1,6.187,3H7.8a.8.8,0,1,1,0,1.6ZM20.6,18.34a5.574,5.574,0,0,1-.066.756,7.279,7.279,0,0,0-11.064,0A5.575,5.575,0,0,1,9.4,18.34a7.84,7.84,0,0,1,11.2,0ZM15,17.108a6.71,6.71,0,0,1,5.375,2.687,5.552,5.552,0,0,1-.232.642,6.161,6.161,0,0,0-10.286,0,5.552,5.552,0,0,1-.232-.642A6.71,6.71,0,0,1,15,17.108Zm0,1.12a5.6,5.6,0,0,1,4.848,2.795,5.639,5.639,0,0,1-.349.53,5.042,5.042,0,0,0-9,0,5.638,5.638,0,0,1-.349-.53A5.6,5.6,0,0,1,15,18.228Zm0,1.12a4.481,4.481,0,0,1,4.1,2.68,5.681,5.681,0,0,1-.433.42,3.921,3.921,0,0,0-7.34,0,5.68,5.68,0,0,1-.433-.42A4.481,4.481,0,0,1,15,19.348Zm0,1.12a3.361,3.361,0,0,1,3.2,2.346,5.631,5.631,0,0,1-.494.31,2.8,2.8,0,0,0-5.421,0,5.631,5.631,0,0,1-.494-.31A3.361,3.361,0,0,1,15,20.468Zm0,1.12a2.241,2.241,0,0,1,2.195,1.789,5.556,5.556,0,0,1-.534.2,1.68,1.68,0,0,0-3.322,0,5.556,5.556,0,0,1-.534-.2A2.241,2.241,0,0,1,15,21.588Zm0,1.12a1.12,1.12,0,0,1,1.114,1.008,5.546,5.546,0,0,1-.555.084.56.56,0,0,0-1.119,0,5.546,5.546,0,0,1-.555-.084A1.12,1.12,0,0,1,15,22.708Z" transform="translate(-3 -3)" fill-rule="evenodd"/>
      </g>
    </g>
    <line id="Line_7" data-name="Line 7" y2="28" transform="translate(31 18)" fill="none" stroke="#000" stroke-width="1"/>
  </g>
</svg>
