<svg
  xmlns="http://www.w3.org/2000/svg"
  width="24"
  height="24"
  viewBox="0 0 24 24"
  fill="none"
>
  <path
    d="M3.5 12C5.45 8.85 8.44 7 12 7C13.65 7 15.17 7.4 16.51 8.08C17.97 8.83 19.21 9.98 20.5 12C19.96 12.85 19.4 13.6 18.78 14.25C17 16.14 14.68 17 12 17C8.44 17 5.45 15.15 3.5 12Z"
    stroke="#5F5B5B"
    stroke-width="1.8"
    stroke-linecap="round"
    stroke-linejoin="round"
  />
  <path
    d="M9.45 12C9.45 10.59 10.59 9.45 12 9.45C13.41 9.45 14.55 10.59 14.55 12C14.55 13.41 13.41 14.55 12 14.55"
    stroke="#5F5B5B"
    stroke-width="1.8"
    stroke-linecap="round"
    stroke-linejoin="round"
  />
  <path
    d="M5 4.5L19 19.5"
    stroke="#5F5B5B"
    stroke-width="2.1"
    stroke-linecap="round"
    stroke-linejoin="round"
  />
</svg>
