<svg id="vector" xmlns="http://www.w3.org/2000/svg" width="15.190079" height="21.7" viewBox="0 0 19.374 27.677"><path fill="#000" fill-rule="evenodd" d="M16.607,11.07L5.535,11.07L5.535,6.919a4.152,4.152 0,1 1,8.3 0v0.384L16.607,7.303v-0.384a6.919,6.919 0,0 0,-6.919 -6.919h0a6.919,6.919 0,0 0,-6.919 6.919v4.152L0,11.071v13.838a2.768,2.768 0,0 0,2.768 2.768h16.606L19.374,13.838A2.768,2.768 0,0 0,16.607 11.07ZM10.762,19.39 L11.072,23.524L8.307,23.524l0.31,-4.134a2.353,2.353 0,1 1,2.148 0Z" id="path_0"/></svg>