<svg xmlns="http://www.w3.org/2000/svg" width="118" height="18" viewBox="0 0 118 18">
  <defs>
    <style>
      @font-face {
        font-family: "OrangeMoneyWordmark";
        src: url("../fonts/sfProDisplay/SFPRODISPLAYREGULAR.ttf") format("truetype");
        font-weight: 400;
        font-style: normal;
      }
    </style>
  </defs>
  <g transform="translate(0.707 2)">
    <g transform="translate(0.708 1.142)">
      <path d="M12.912,1.791V9.934a1.8,1.8,0,0,1-3.6,0V6.116L3.062,12.341A1.8,1.8,0,0,1,.518,9.807L6.769,3.583H2.935A1.791,1.791,0,1,1,2.935,0h8.178a1.8,1.8,0,0,1,1.8,1.791Z" transform="translate(0 0)" fill="#ffffff"/>
    </g>
    <path d="M12.395,3.056,6.143,9.281H9.978a1.791,1.791,0,1,1,0,3.583H1.8A1.8,1.8,0,0,1,0,11.072V2.93a1.8,1.8,0,0,1,3.6,0V6.748L9.85.523a1.8,1.8,0,0,1,2.544,2.533Z" transform="translate(15.501 0)" fill="#ff6f00"/>
  </g>
  <text x="34" y="12.8" font-family="OrangeMoneyWordmark, Helvetica, Arial, sans-serif" font-size="11.4" font-weight="400" letter-spacing="0">
    <tspan fill="#ffffff">Orange</tspan>
    <tspan dx="1.2" fill="#ffffff">Money</tspan>
  </text>
</svg>
